<?xml version="1.0" standalone="no"?>
<!DOCTYPE svg PUBLIC "-//W3C//DTD SVG 20010904//EN"
 "http://www.w3.org/TR/2001/REC-SVG-20010904/DTD/svg10.dtd">
<svg version="1.0" xmlns="http://www.w3.org/2000/svg"
 width="1280.000000pt" height="1280.000000pt" viewBox="0 0 1280.000000 1280.000000"
 preserveAspectRatio="xMidYMid meet">
<metadata>
Created by potrace 1.15, written by Peter Selinger 2001-2017
</metadata>
<g transform="translate(0.000000,1280.000000) scale(0.100000,-0.100000)"
fill="#000000" stroke="none">
<path d="M5860 10533 c-634 -8 -1050 -17 -1073 -24 -21 -5 -51 -22 -68 -37
-31 -28 -27 -17 -559 -1522 -65 -184 -402 -1138 -750 -2120 -347 -982 -814
-2299 -1036 -2927 -229 -648 -404 -1157 -404 -1177 0 -43 254 -833 278 -866
35 -46 80 -65 152 -63 70 2 2457 199 2527 208 46 7 97 37 124 75 10 14 98 291
194 615 97 325 180 593 184 598 4 4 223 23 487 42 263 19 664 49 889 65 226
17 460 33 521 37 l110 6 53 -174 c29 -96 60 -185 69 -199 9 -14 171 -188 360
-387 276 -290 354 -366 387 -378 39 -15 99 -11 1195 79 635 52 1183 99 1217
105 34 5 75 18 91 30 36 25 62 77 62 122 0 18 -230 704 -511 1524 -281 819
-558 1625 -614 1790 -57 165 -186 543 -288 840 -102 297 -415 1208 -695 2025
-280 817 -516 1499 -525 1515 -19 37 -44 61 -79 74 -15 6 -187 40 -383 76
l-354 65 -263 -2 c-145 0 -729 -7 -1298 -15z m600 -3856 c0 -9 153 -518 215
-718 6 -18 -37 -23 -314 -35 -130 -6 -153 -5 -149 7 3 8 56 184 118 391 62
208 117 375 121 372 5 -3 9 -11 9 -17z"/>
</g>
</svg>
